<?xml version="1.0" encoding="UTF-8"?>
<svg version="1.1" xmlns="http://www.w3.org/2000/svg" width="512" height="512">
<path d="M0 0 C168.96 0 337.92 0 512 0 C512 168.96 512 337.92 512 512 C343.04 512 174.08 512 0 512 C0 343.04 0 174.08 0 0 Z " fill="#004F83" transform="translate(0,0)"/>
<path d="M0 0 C64.27829602 0 64.27829602 0 80.671875 15.54296875 C86.77030624 21.97906481 90.75446937 28.44525554 93 37 C93.17974365 37.64187256 93.3594873 38.28374512 93.54467773 38.94506836 C95.24553512 45.6297207 95.29726076 52.13143691 95.25 59 C95.26160156 60.68609375 95.26160156 60.68609375 95.2734375 62.40625 C95.25830581 68.88261396 94.76277142 74.7646218 93 81 C92.75121094 81.94488281 92.50242187 82.88976562 92.24609375 83.86328125 C88.68389186 94.65313915 81.83042378 104.14634501 72 110 C71.28714844 110.43699219 70.57429688 110.87398438 69.83984375 111.32421875 C48.32253299 123.28626296 23.6883495 119 0 119 C0 79.73 0 40.46 0 0 Z " fill="#FDFDFE" transform="translate(62,197)"/>
<path d="M0 0 C63.03768382 0 63.03768382 0 74.33984375 11.046875 C80.19649251 17.93705001 80.75945967 25.41077767 80.390625 34.17578125 C79.66697696 41.26029553 76.97672481 46.87246534 72 52 C67.65517241 55 67.65517241 55 65 55 C65 55.66 65 56.32 65 57 C65.86625 57.2475 66.7325 57.495 67.625 57.75 C75.7820439 60.77112737 79.14384866 65.47610862 83 73 C85.78584335 81.35753006 84.92392988 92.10195173 81.1171875 99.96484375 C80.74851562 100.63644531 80.37984375 101.30804688 80 102 C79.46375 103.051875 78.9275 104.10375 78.375 105.1875 C71.37721808 113.47434701 63.5229055 115.76218292 53 119 C35.51 119 18.02 119 0 119 C0 79.73 0 40.46 0 0 Z " fill="#FCFDFD" transform="translate(178,197)"/>
<path d="M0 0 C1.88332031 -0.07347656 1.88332031 -0.07347656 3.8046875 -0.1484375 C4.90039062 0.02429688 5.99609375 0.19703125 7.125 0.375 C9.36628168 3.52459057 10.82522772 6.8434635 12.2109375 10.4375 C12.5817041 11.39245361 12.9524707 12.34740723 13.33447266 13.33129883 C13.71909668 14.33572021 14.1037207 15.3401416 14.5 16.375 C15.10207275 17.93093872 15.10207275 17.93093872 15.71630859 19.51831055 C16.85697907 22.46885408 17.99187888 25.42155064 19.125 28.375 C19.60911616 29.63161017 20.09344043 30.88814021 20.578125 32.14453125 C21.34956489 34.14770351 22.11914604 36.15159274 22.88671875 38.15625 C23.84145904 40.63797238 24.80264537 43.11675917 25.76953125 45.59375 C26.21401611 46.73299927 26.21401611 46.73299927 26.66748047 47.89526367 C27.23201316 49.34108949 27.79733478 50.78660775 28.36376953 52.23168945 C29.97380474 56.35650568 31.54456763 60.49412451 33.08824158 64.64427185 C35.72077647 71.71521484 38.43592827 78.74934643 41.2109375 85.765625 C41.561064 86.65287766 41.91119049 87.54013031 42.27192688 88.45426941 C43.71709388 92.11603231 45.1626542 95.77758618 46.61865234 99.43505859 C47.69727535 102.14701148 48.76733239 104.86221197 49.8359375 107.578125 C50.16709564 108.40411194 50.49825378 109.23009888 50.83944702 110.08111572 C51.1404129 110.85002136 51.44137878 111.618927 51.75146484 112.41113281 C52.0176059 113.08235168 52.28374695 113.75357056 52.55795288 114.44512939 C53.125 116.375 53.125 116.375 53.125 120.375 C47.185 120.375 41.245 120.375 35.125 120.375 C31.48794778 112.59054542 28.27966 104.74846306 25.3125 96.6875 C23.930625 92.954375 22.54875 89.22125 21.125 85.375 C6.935 85.045 -7.255 84.715 -21.875 84.375 C-22.865 87.675 -23.855 90.975 -24.875 94.375 C-25.67259093 96.60701684 -26.49638314 98.82998523 -27.35546875 101.0390625 C-27.79697266 102.17988281 -28.23847656 103.32070313 -28.69335938 104.49609375 C-29.14517578 105.65238281 -29.59699219 106.80867188 -30.0625 108 C-30.75762695 109.79244141 -30.75762695 109.79244141 -31.46679688 111.62109375 C-32.59947927 114.54037826 -33.73676621 117.45787551 -34.875 120.375 C-41.145 120.375 -47.415 120.375 -53.875 120.375 C-51.84752437 113.31167777 -49.48302744 106.50973606 -46.76953125 99.68359375 C-46.37301361 98.67630722 -45.97649597 97.66902069 -45.56796265 96.63121033 C-44.27816026 93.35683999 -42.98285048 90.08467896 -41.6875 86.8125 C-40.3332653 83.37901106 -38.98036597 79.9449977 -37.62745667 76.51098633 C-36.71261634 74.18933989 -35.79728036 71.8678887 -34.88145447 69.54663086 C-31.98480352 62.20297772 -29.1046156 54.85315158 -26.2421875 47.49609375 C-25.88350082 46.57446945 -25.52481415 45.65284515 -25.15525818 44.70329285 C-23.80230434 41.22582841 -22.44982011 37.74818528 -21.1000061 34.26950073 C-17.79340511 25.74967822 -14.44864236 17.24779743 -10.98828125 8.7890625 C-10.69044235 8.05722748 -10.39260345 7.32539246 -10.08573914 6.57138062 C-7.47146036 0.22466452 -6.91339572 0.18379171 0 0 Z " fill="#FBFCFD" transform="translate(318.875,195.625)"/>
<path d="M0 0 C12.08726209 0.15754578 24.67600081 1.78083522 33.92504883 10.31689453 C43.59782824 20.25169054 45.19420014 33.28586243 45.07739258 46.56298828 C44.60502574 58.2025916 41.3162676 68.7764471 33.20629883 77.34033203 C22.61927232 86.51333788 9.28265829 87.49915241 -4.07495117 87.37939453 C-5.04045898 87.37488281 -6.0059668 87.37037109 -7.00073242 87.36572266 C-9.35887206 87.3540487 -11.71687719 87.33767474 -14.07495117 87.31689453 C-14.09807386 76.12116209 -14.11586588 64.92543529 -14.12676334 53.72968388 C-14.13199234 48.53161338 -14.13909027 43.33355917 -14.15039062 38.13549805 C-14.16121894 33.12347185 -14.16722788 28.11146135 -14.16982841 23.09942436 C-14.17168277 21.18277171 -14.17530357 19.26611996 -14.18068123 17.34947395 C-14.18789092 14.67461381 -14.18894215 11.9998194 -14.18847656 9.32495117 C-14.19207184 8.52438293 -14.19566711 7.7238147 -14.19937134 6.89898682 C-14.18149491 -2.5289609 -7.99645604 0.01166514 0 0 Z " fill="#035184" transform="translate(94.074951171875,212.68310546875)"/>
<path d="M0 0 C4.57875 -0.061875 9.1575 -0.12375 13.875 -0.1875 C16.0094458 -0.22846802 16.0094458 -0.22846802 18.18701172 -0.27026367 C26.82827693 -0.32643854 34.46005316 0.19875621 41.9375 4.8125 C45.76775404 8.87489064 47.1819087 12.40501461 47.375 17.9375 C47.17080865 23.85017128 45.49464061 28.00714585 41.9375 32.75 C33.74404721 39.02583618 23.74171939 38.37687934 13.875 38.1875 C9.29625 38.125625 4.7175 38.06375 0 38 C0 25.46 0 12.92 0 0 Z " fill="#055285" transform="translate(196,262)"/>
<path d="M0 0 C3.84317013 0.02512953 7.68499076 0.06818659 11.52758789 0.13989258 C12.73801758 0.15665039 13.94844727 0.1734082 15.19555664 0.19067383 C22.49190947 0.49577819 28.4712492 1.8893993 34.52758789 6.13989258 C37.92349432 11.23375222 37.06738492 17.1952924 36.52758789 23.13989258 C35.61380798 26.14934737 34.90693509 26.88256318 32.52758789 29.13989258 C26.82435944 32.04153513 22.24385286 33.26529112 15.89086914 33.23754883 C14.59213867 33.23432617 13.2934082 33.23110352 11.95532227 33.2277832 C10.58357681 33.21942789 9.21183202 33.21096295 7.84008789 33.20239258 C6.45662594 33.19737593 5.07316226 33.19281331 3.68969727 33.1887207 C0.30228394 33.17691787 -3.08504244 33.16045276 -6.47241211 33.13989258 C-6.49706603 28.60091553 -6.51525 24.06197715 -6.52734375 19.52294922 C-6.53238351 17.97769492 -6.5392153 16.43244541 -6.54785156 14.88720703 C-6.55993287 12.67064229 -6.56564384 10.45414039 -6.57006836 8.23754883 C-6.57522964 7.54274918 -6.58039093 6.84794952 -6.58570862 6.13209534 C-6.58590488 4.46759928 -6.5343034 2.80323759 -6.47241211 1.13989258 C-4.70125781 -0.63126172 -2.35732942 0.00789862 0 0 Z " fill="#045285" transform="translate(202.472412109375,212.860107421875)"/>
<path d="M0 0 C14.52 0 29.04 0 44 0 C44 5.61 44 11.22 44 17 C29.48 17 14.96 17 0 17 C0 11.39 0 5.78 0 0 Z " fill="#F6F9FB" transform="translate(415,262)"/>
<path d="M0 0 C0.66 0 1.32 0 2 0 C2.27880005 0.85996582 2.27880005 0.85996582 2.56323242 1.73730469 C7.2452267 16.29718186 7.2452267 16.29718186 13.0546875 30.4296875 C14 33 14 33 15 40 C5.43 40 -4.14 40 -14 40 C-10.6270376 28.756792 -10.6270376 28.756792 -8.80859375 23.984375 C-8.42123047 22.96085937 -8.03386719 21.93734375 -7.63476562 20.8828125 C-7.23966797 19.84898437 -6.84457031 18.81515625 -6.4375 17.75 C-3.0568694 8.93276804 -3.0568694 8.93276804 0 0 Z " fill="#065386" transform="translate(318,223)"/>
<path d="M0 0 C0.33 0 0.66 0 1 0 C1 13.53 1 27.06 1 41 C-12.53 41 -26.06 41 -40 41 C-36.77794772 39.38897386 -33.66489916 38.09649079 -30.3125 36.8125 C-17.71232801 31.5611525 -8.22889841 22.19948407 -2.96484375 9.59765625 C-1.78548854 6.42246916 -0.80417774 3.28981803 0 0 Z " fill="#000000" transform="translate(511,471)"/>
<path d="M0 0 C1.61102614 3.22205228 2.90350921 6.33510084 4.1875 9.6875 C9.4388475 22.28767199 18.80051593 31.77110159 31.40234375 37.03515625 C34.57753084 38.21451146 37.71018197 39.19582226 41 40 C41 40.33 41 40.66 41 41 C27.47 41 13.94 41 0 41 C0 27.47 0 13.94 0 0 Z " fill="#000000" transform="translate(0,471)"/>
<path d="M0 0 C13.53 0 27.06 0 41 0 C41 13.53 41 27.06 41 41 C39.38897386 37.77794772 38.09649079 34.66489916 36.8125 31.3125 C31.5611525 18.71232801 22.19948407 9.22889841 9.59765625 3.96484375 C6.42246916 2.78548854 3.28981803 1.80417774 0 1 C0 0.67 0 0.34 0 0 Z " fill="#000000" transform="translate(471,0)"/>
<path d="M0 0 C13.53 0 27.06 0 41 0 C37.77794772 1.61102614 34.66489916 2.90350921 31.3125 4.1875 C18.71232801 9.4388475 9.22889841 18.80051593 3.96484375 31.40234375 C2.78548854 34.57753084 1.80417774 37.71018197 1 41 C0.67 41 0.34 41 0 41 C0 27.47 0 13.94 0 0 Z " fill="#000000" transform="translate(0,0)"/>
</svg>
