<svg xmlns="http://www.w3.org/2000/svg" viewBox="0 0 1200 400"><defs><linearGradient id="bgGradient" x1="0%" x2="100%" y1="0%" y2="100%"><stop offset="0%" style="stop-color:#512bd4;stop-opacity:1"/><stop offset="100%" style="stop-color:#8b5cf6;stop-opacity:1"/></linearGradient><linearGradient id="accentGradient" x1="0%" x2="100%" y1="0%" y2="0%"><stop offset="0%" style="stop-color:#a78bfa;stop-opacity:.3"/><stop offset="50%" style="stop-color:#c4b5fd;stop-opacity:.5"/><stop offset="100%" style="stop-color:#a78bfa;stop-opacity:.3"/></linearGradient><filter id="glow"><feGaussianBlur result="coloredBlur" stdDeviation="4"/><feMerge><feMergeNode in="coloredBlur"/><feMergeNode in="SourceGraphic"/></feMerge></filter></defs><rect width="1200" height="400" fill="url(#bgGradient)"/><circle cx="100" cy="80" r="120" fill="url(#accentGradient)" opacity=".2"/><circle cx="1100" cy="320" r="150" fill="url(#accentGradient)" opacity=".2"/><circle cx="950" cy="100" r="80" fill="url(#accentGradient)" opacity=".15"/><g opacity=".1"><line x1="0" x2="1200" y1="100" y2="100" stroke="#fff" stroke-width="1"/><line x1="0" x2="1200" y1="200" y2="200" stroke="#fff" stroke-width="1"/><line x1="0" x2="1200" y1="300" y2="300" stroke="#fff" stroke-width="1"/><line x1="300" x2="300" y1="0" y2="400" stroke="#fff" stroke-width="1"/><line x1="600" x2="600" y1="0" y2="400" stroke="#fff" stroke-width="1"/><line x1="900" x2="900" y1="0" y2="400" stroke="#fff" stroke-width="1"/></g><g transform="translate(180, 200)"><polygon fill="none" stroke="#fff" stroke-width="4" points="0 -60 52 -30 52 30 0 60 -52 30 -52 -30" opacity=".9"/><polygon fill="#fff" points="0 -50 43 -25 43 25 0 50 -43 25 -43 -25" opacity=".1"/><circle cx="0" cy="0" r="15" fill="#fff" opacity=".9"/></g><text x="320" y="160" fill="#fff" font-family="Segoe UI, Arial, sans-serif" font-size="64" font-weight="700" opacity=".95">DBA Dash</text><text x="320" y="200" fill="#fff" font-family="Segoe UI, Arial, sans-serif" font-size="32" font-weight="400" opacity=".85">Now Using</text><text x="320" y="270" fill="#fff" filter="url(#glow)" font-family="Segoe UI, Arial, sans-serif" font-size="90" font-weight="700">.NET 10</text><g transform="translate(1050, 60)"><rect width="120" height="50" x="-60" y="-25" fill="#fff" opacity=".25" rx="25"/><text x="0" y="8" fill="#fff" font-family="Segoe UI, Arial, sans-serif" font-size="24" font-weight="700" text-anchor="middle">LTS</text></g></svg>